<svg id="Layer_1" data-name="Layer 1" xmlns="http://www.w3.org/2000/svg" viewBox="0 0 1000 290"><defs><style>.cls-1{fill:#f7f7f7;}</style></defs><title>Artboard 1 copy+100</title><path class="cls-1" d="M162.05,182.89a56.32,56.32,0,0,0-9.52-3.71l-8.92-2.66A125.5,125.5,0,0,1,57.76,45.24a2.07,2.07,0,0,0-3.54-1.62,145,145,0,0,0,70,242.05l.7.05h0a55.12,55.12,0,0,0,37.11-102.82Z"/><path class="cls-1" d="M282.48,69.92A144.08,144.08,0,0,0,193.65,4.1a54.61,54.61,0,0,0-63.82,40.84,54.29,54.29,0,0,0,35.5,63.73l13.2,4a126.33,126.33,0,0,1,84.33,127.2,2,2,0,0,0,1.26,2,2.1,2.1,0,0,0,.81.17,2.06,2.06,0,0,0,1.53-.7,145.2,145.2,0,0,0,16-171.41Z"/><path class="cls-1" d="M492.36,166.8c9.15-6.45,13.78-15.47,13.78-26.81,0-8.37-3.44-16.76-8.92-21.83a39.63,39.63,0,0,0-9.67-6.82,84.4,84.4,0,0,0-10.6-4.69c-2.51-.88-5.69-1.87-9.71-3.11L451,98.89l-5.77-2.21a21.56,21.56,0,0,1-5-2.39c-5.1-3.94-7.32-7.65-6.8-11.35l0-.3c0-10.57,10.12-17.13,26.43-17.13,12.12,0,24,3.59,35.4,10.67l3.31,2.06V60.29l-1-.63c-10.7-6.74-23.49-10.15-38-10.15-13.25,0-23.83,3.06-31.46,9.09s-11.65,14.09-11.65,23.7a30.18,30.18,0,0,0,8.08,20.82,34.07,34.07,0,0,0,9.39,6.34,91.25,91.25,0,0,0,10.74,4.33c2.43.81,5.64,1.74,9.35,2.81l3.27,1c3,.83,5.38,1.58,7.11,2.13l9.17,3.07a25.23,25.23,0,0,1,6.71,3.19c2.92,1.76,9.61,6.63,8.76,14.22,0,12.07-12,20.17-29.81,20.17a68.68,68.68,0,0,1-23.75-4.25A62.58,62.58,0,0,1,417.57,146l-3.57-3v19.81l.86.65c10.59,8,27.88,13,45.13,13C472.69,176.34,483.59,173.13,492.36,166.8Z"/><path class="cls-1" d="M581.86,50.86H567.37L512.66,174.31h17.77l14.38-32.66h59.28l14.72,32.66h17.93Zm16.22,75.46H551L574.53,74Z"/><polygon class="cls-1" points="732.42 100.78 666.36 100.78 666.36 51.54 649.51 51.54 649.51 174.31 666.36 174.31 666.36 116.44 732.42 116.44 732.42 174.31 749.27 174.31 749.27 51.54 732.42 51.54 732.42 100.78"/><polygon class="cls-1" points="862.97 158.64 791.74 158.64 791.74 116.44 848.08 116.44 848.08 100.78 791.74 100.78 791.74 67.2 860.43 67.2 860.43 51.54 774.89 51.54 774.89 174.31 862.97 174.31 862.97 158.64"/><path class="cls-1" d="M966.78,174.31h20l-38.73-55.18c16.38-4,26.41-16.45,26.41-33.28,0-20.84-15.53-34.31-39.56-34.31H879.79V174.31h16.84V121h32.92Zm-32.55-69h-37.6V67.2h37.6c14.86,0,23.39,7,23.39,19.16S949.31,105.34,934.23,105.34Z"/><polygon class="cls-1" points="417.43 249.05 422 249.05 422 233.13 437.63 233.13 437.63 228.89 422 228.89 422 218.79 441.26 218.79 441.26 214.55 417.43 214.55 417.43 249.05"/><polygon class="cls-1" points="461.78 214.55 457.21 214.55 457.21 249.05 480.47 249.05 480.47 244.81 461.78 244.81 461.78 214.55"/><path class="cls-1" d="M509.27,214a16.66,16.66,0,0,0-12.42,5.14,18.89,18.89,0,0,0,0,25.43,16.68,16.68,0,0,0,12.42,5.08,16.39,16.39,0,0,0,12.37-5.08,18.75,18.75,0,0,0,0-25.43A16.62,16.62,0,0,0,509.27,214ZM522,231.8a13.49,13.49,0,0,1-3.68,9.63,12.52,12.52,0,0,1-18.08,0,14.45,14.45,0,0,1,0-19.27,12.54,12.54,0,0,1,18.08,0A13.52,13.52,0,0,1,522,231.8Z"/><polygon class="cls-1" points="573.45 241.25 565.12 214.41 561.49 214.41 553.2 241.25 544.27 214.55 539.25 214.55 551.17 249.24 555.03 249.24 563.3 222.82 571.53 249.24 575.38 249.24 587.26 214.55 582.34 214.55 573.45 241.25"/><path class="cls-1" d="M643.11,231.44a24.14,24.14,0,0,0-3-1.33c-.74-.25-1.7-.55-2.89-.92l-4.46-1.27-1.63-.62a5.85,5.85,0,0,1-1.44-.69c-1.47-1.14-2.11-2.22-2-3.37,0-3,2.89-4.93,7.56-4.93a18.86,18.86,0,0,1,10,3l.79.49V217l-.24-.15a19.8,19.8,0,0,0-10.7-2.86c-3.72,0-6.69.86-8.83,2.56a8.08,8.08,0,0,0-3.25,6.62,8.43,8.43,0,0,0,2.25,5.81,9.6,9.6,0,0,0,2.63,1.78,28,28,0,0,0,3,1.21c.71.24,1.65.51,2.78.84l.79.22c.85.24,1.53.45,2,.61l2.58.86a6.89,6.89,0,0,1,1.91.92c.84.5,2.77,1.9,2.52,4.09,0,3.47-3.42,5.8-8.51,5.8a19.64,19.64,0,0,1-6.75-1.21,17.75,17.75,0,0,1-5.06-2.88l-.85-.72v5.34l.2.16c3,2.24,7.84,3.64,12.7,3.64a15.2,15.2,0,0,0,9.09-2.68,8.69,8.69,0,0,0,3.85-7.49,8.55,8.55,0,0,0-2.49-6.11A10.78,10.78,0,0,0,643.11,231.44Z"/><path class="cls-1" d="M680.46,214A16.65,16.65,0,0,0,668,219.11a18.86,18.86,0,0,0,0,25.43,16.65,16.65,0,0,0,12.42,5.08,16.4,16.4,0,0,0,12.37-5.08,18.75,18.75,0,0,0,0-25.43A16.62,16.62,0,0,0,680.46,214Zm12.72,17.83a13.54,13.54,0,0,1-3.68,9.63,12.52,12.52,0,0,1-18.08,0,14.42,14.42,0,0,1,0-19.27,12.54,12.54,0,0,1,18.08,0A13.56,13.56,0,0,1,693.18,231.8Z"/><polygon class="cls-1" points="719.52 214.55 714.95 214.55 714.95 249.05 738.21 249.05 738.21 244.81 719.52 244.81 719.52 214.55"/><path class="cls-1" d="M776.81,234.33c0,6.86-3.59,11-9.61,11s-9.62-4.1-9.62-11V214.55H753v19.73c0,4.85,1.32,8.66,3.92,11.31a13.84,13.84,0,0,0,10.27,4,13.57,13.57,0,0,0,10.21-4c2.64-2.68,4-6.49,4-11.31V214.55h-4.57Z"/><polygon class="cls-1" points="796.33 218.79 807.85 218.79 807.85 249.05 812.42 249.05 812.42 218.79 824.09 218.79 824.09 214.55 796.33 214.55 796.33 218.79"/><rect class="cls-1" x="839.75" y="214.55" width="4.57" height="34.5"/><path class="cls-1" d="M878.94,214a16.64,16.64,0,0,0-12.41,5.14,18.86,18.86,0,0,0,0,25.43,16.65,16.65,0,0,0,12.41,5.08,16.39,16.39,0,0,0,12.37-5.08,18.72,18.72,0,0,0,0-25.43A16.58,16.58,0,0,0,878.94,214Zm12.73,17.83a13.5,13.5,0,0,1-3.69,9.63,12.52,12.52,0,0,1-18.08,0,14.45,14.45,0,0,1,0-19.27,12.54,12.54,0,0,1,18.08,0A13.53,13.53,0,0,1,891.67,231.8Z"/><polygon class="cls-1" points="937.62 240.9 917.42 214.75 917.26 214.55 913.43 214.55 913.43 249.05 917.91 249.05 917.91 222.61 938.31 249.05 942.1 249.05 942.1 214.55 937.62 214.55 937.62 240.9"/><path class="cls-1" d="M978.74,231.44a23.55,23.55,0,0,0-3-1.33c-.73-.25-1.69-.55-2.89-.92l-4.46-1.27-1.62-.62a6.12,6.12,0,0,1-1.45-.69c-1.47-1.14-2.11-2.22-2-3.37,0-3,2.9-4.93,7.57-4.93a18.86,18.86,0,0,1,10,3l.79.49V217l-.24-.15a19.8,19.8,0,0,0-10.7-2.86c-3.72,0-6.69.86-8.83,2.56a8.09,8.09,0,0,0-3.26,6.62A8.4,8.4,0,0,0,961,229a9.44,9.44,0,0,0,2.63,1.78,27.17,27.17,0,0,0,3,1.21c.71.24,1.64.51,2.78.84l.78.22c.85.24,1.53.45,2,.61l2.59.86a7.23,7.23,0,0,1,1.91.92c.84.5,2.77,1.9,2.52,4.09,0,3.47-3.42,5.8-8.52,5.8a19.62,19.62,0,0,1-6.74-1.21A17.61,17.61,0,0,1,959,241.2l-.86-.72v5.34l.21.16c3,2.24,7.84,3.64,12.69,3.64a15.21,15.21,0,0,0,9.1-2.68,8.71,8.71,0,0,0,3.85-7.49,8.52,8.52,0,0,0-2.5-6.11A10.54,10.54,0,0,0,978.74,231.44Z"/></svg>